  <svg version="1.1" id="Layer_1" xmlns="http://www.w3.org/2000/svg" xmlns:xlink="http://www.w3.org/1999/xlink" x="0px" y="0px"
  	 width="104.75px" height="53px" viewBox="0 0 104.75 53" enable-background="new 0 0 104.75 53" xml:space="preserve">
  <g>
  	<path fill="#C5A370" d="M25.632,28.773v8.309h-4.58V15.916h9.553v3.959h-4.973v5.07h4.646v3.828H25.632z">
    </path>
  	<path fill="#C5A370" d="M37.867,15.916v21.166h-4.58V15.916H37.867z">
  	</path>
  	<path fill="#C5A370" d="M53.405,37.082h-4.58V19.516c0-0.175-0.061-0.328-0.18-0.459c-0.12-0.131-0.268-0.195-0.441-0.195h-1.767
  		c-0.175,0-0.322,0.064-0.441,0.195c-0.12,0.131-0.181,0.284-0.181,0.459v17.566h-4.58V19.908c0-2.879,1.353-4.318,4.057-4.318
  		h4.057c2.704,0,4.057,1.439,4.057,4.318V37.082z">
  	</path>
  	<path fill="#C5A370" d="M62.663,28.676v-3.37h6.053v7.786c0,2.879-1.353,4.318-4.057,4.318h-4.122
  		c-2.705,0-4.057-1.439-4.057-4.318V19.908c0-2.879,1.352-4.318,4.057-4.318h4.122c2.704,0,4.057,1.439,4.057,4.318v1.995h-4.352
  		v-2.552c0-0.174-0.061-0.327-0.18-0.458c-0.12-0.131-0.268-0.196-0.441-0.196h-2.062c-0.175,0-0.321,0.065-0.441,0.196
  		s-0.18,0.284-0.18,0.458v14.264c0,0.174,0.06,0.326,0.18,0.457s0.267,0.197,0.441,0.197h2.062c0.174,0,0.321-0.066,0.441-0.197
  		c0.119-0.131,0.18-0.283,0.18-0.457v-4.939H62.663z">
  	</path>
  	<path fill="#C5A370" d="M83.698,19.908v13.184c0,2.879-1.353,4.318-4.057,4.318h-4.351c-2.705,0-4.057-1.439-4.057-4.318V19.908
  		c0-2.879,1.352-4.318,4.057-4.318h4.351C82.345,15.59,83.698,17.029,83.698,19.908z M79.118,33.615V19.352
  		c0-0.174-0.061-0.327-0.18-0.458c-0.12-0.131-0.268-0.196-0.441-0.196h-2.062c-0.175,0-0.321,0.065-0.441,0.196
  		s-0.18,0.284-0.18,0.458v14.264c0,0.174,0.06,0.326,0.18,0.457s0.267,0.197,0.441,0.197h2.062c0.174,0,0.321-0.066,0.441-0.197
  		C79.057,33.941,79.118,33.789,79.118,33.615z">
  	</path>
  </g>
  <path id="border-box" fill="#C5A370" d="M0,0v53h104.75V0H0z M100.75,49.125H4V3.875h96.75V49.125z">

  </path>
  </svg>
