<?xml version="1.0" encoding="utf-8"?>
<!-- Generator: Adobe Illustrator 19.0.0, SVG Export Plug-In . SVG Version: 6.00 Build 0)  -->
<svg version="1.1" id="Layer_1" xmlns="http://www.w3.org/2000/svg" xmlns:xlink="http://www.w3.org/1999/xlink" x="0px" y="0px"
	 viewBox="0 0 1000 720" style="enable-background:new 0 0 1000 720;" xml:space="preserve">
<style type="text/css">
	.st0{fill:#C5A370;}
	.st1{fill:none;stroke:#C5A370;stroke-width:4;stroke-miterlimit:10;}
</style>
<g>
	<path class="st0" d="M158.1,411.9v8.3h-4.6v-21.2h9.6v4h-5v5.1h4.6v3.8H158.1z"/>
	<path class="st0" d="M170.3,399.1v21.2h-4.6v-21.2H170.3z"/>
	<path class="st0" d="M185.9,420.2h-4.6v-17.6c0-0.2-0.1-0.3-0.2-0.5c-0.1-0.1-0.3-0.2-0.4-0.2h-1.8c-0.2,0-0.3,0.1-0.4,0.2
		c-0.1,0.1-0.2,0.3-0.2,0.5v17.6h-4.6v-17.2c0-2.9,1.4-4.3,4.1-4.3h4.1c2.7,0,4.1,1.4,4.1,4.3V420.2z"/>
	<path class="st0" d="M195.1,411.8v-3.4h6.1v7.8c0,2.9-1.4,4.3-4.1,4.3H193c-2.7,0-4.1-1.4-4.1-4.3v-13.2c0-2.9,1.4-4.3,4.1-4.3h4.1
		c2.7,0,4.1,1.4,4.1,4.3v2h-4.4v-2.6c0-0.2-0.1-0.3-0.2-0.5c-0.1-0.1-0.3-0.2-0.4-0.2h-2.1c-0.2,0-0.3,0.1-0.4,0.2s-0.2,0.3-0.2,0.5
		v14.3c0,0.2,0.1,0.3,0.2,0.5s0.3,0.2,0.4,0.2h2.1c0.2,0,0.3-0.1,0.4-0.2c0.1-0.1,0.2-0.3,0.2-0.5v-4.9H195.1z"/>
	<path class="st0" d="M216.2,403.1v13.2c0,2.9-1.4,4.3-4.1,4.3h-4.4c-2.7,0-4.1-1.4-4.1-4.3v-13.2c0-2.9,1.4-4.3,4.1-4.3h4.4
		C214.8,398.8,216.2,400.2,216.2,403.1z M211.6,416.8v-14.3c0-0.2-0.1-0.3-0.2-0.5c-0.1-0.1-0.3-0.2-0.4-0.2h-2.1
		c-0.2,0-0.3,0.1-0.4,0.2s-0.2,0.3-0.2,0.5v14.3c0,0.2,0.1,0.3,0.2,0.5s0.3,0.2,0.4,0.2h2.1c0.2,0,0.3-0.1,0.4-0.2
		C211.5,417.1,211.6,416.9,211.6,416.8z"/>
</g>
<rect x="134.6" y="385.9" class="st1" width="100.9" height="49.1"/>
</svg>
