<svg xmlns="http://www.w3.org/2000/svg" width="18" height="18" viewBox="0 0 18 18">
  <defs>
    <style>
      .cls-1 {
        fill: #fff;
        fill-rule: evenodd;
      }
    </style>
  </defs>
  <path id="icon-search.svg" class="cls-1" d="M1281.5,47.747a6.745,6.745,0,1,0-6.75,6.757,6.607,6.607,0,0,0,3.32-.889l4.86,4.862A1.8,1.8,0,0,0,1286,57.2a1.755,1.755,0,0,0-.53-1.276l-4.85-4.853h0a6.612,6.612,0,0,0,.88-3.325h0Zm-3.26-3.495a4.925,4.925,0,1,1-3.49-1.455A4.77,4.77,0,0,1,1278.24,44.253Z" transform="translate(-1268 -41)"/>
</svg>
