<?xml version="1.0" encoding="utf-8"?>
<!-- Generator: Adobe Illustrator 16.0.0, SVG Export Plug-In . SVG Version: 6.00 Build 0)  -->
<!DOCTYPE svg PUBLIC "-//W3C//DTD SVG 1.1//EN" "http://www.w3.org/Graphics/SVG/1.1/DTD/svg11.dtd">
<svg version="1.1" id="레이어_1" xmlns="http://www.w3.org/2000/svg" xmlns:xlink="http://www.w3.org/1999/xlink" x="0px"
	 y="0px" width="64.124px" height="130px" viewBox="0 0 64.124 94.431" enable-background="new 0 0 64.124 94.431"
	 xml:space="preserve">
<g>
	<g>
		<g>
			<path fill="#FFFFFF" d="M29.95,94.431c-0.391,0-0.802-0.027-1.305-0.087c-3.091,0.412-6.386-1.23-8.24-4.069L6.316,68.778
				c-2.613-3.975-1.854-9.11,1.695-11.446c1.171-0.758,2.521-1.155,3.917-1.156c2.385,0,4.743,1.14,6.427,3.043l-0.04-25.669
				c-0.007-3.623,1.168-6.883,3.223-8.944c1.382-1.386,3.054-2.118,4.835-2.12c4.462,0,8.084,4.712,8.089,10.504l-0.009,10.299
				c1.717-0.648,3.737-0.717,5.227-0.171c0.864,0.317,1.577,0.769,2.154,1.29c1.112-0.855,2.61-1.314,4.404-1.314
				c1.91,0,3.67,0.929,5.044,2.12c1.058-1.039,2.556-2.025,4.552-2.029c4.545,0,8.24,3.869,8.245,8.625l0.045,30.983
				c0.007,3.091-1.195,6.002-3.386,8.196c-2.188,2.191-5.094,3.401-8.183,3.407L29.98,94.431
				C29.979,94.431,29.951,94.431,29.95,94.431z M28.618,90.325c0.089,0,0.178,0.006,0.266,0.018
				c0.459,0.062,0.787,0.089,1.066,0.089v2l0.019-2l22.58-0.036c2.021-0.004,3.925-0.797,5.358-2.233s2.222-3.341,2.217-5.362
				l-0.045-30.986c-0.003-2.554-1.903-4.63-4.236-4.63c-0.911,0.002-1.708,0.624-2.844,2.218c-0.373,0.523-0.975,0.836-1.617,0.84
				c-0.004,0-0.008,0-0.012,0c-0.639,0-1.238-0.305-1.615-0.82c-0.985-1.349-2.461-2.328-3.509-2.328
				c-2.188,0-2.404,0.935-2.521,1.437c-0.211,0.907-1.02,1.548-1.948,1.548c-0.01,0-0.02,0-0.03,0
				c-0.941-0.015-1.745-0.684-1.931-1.606c-0.038-0.188-0.288-1.148-1.515-1.598c-0.128-0.047-0.409-0.125-0.869-0.125
				c-1.199,0-2.976,0.589-2.984,1.853c-0.003,1.034-0.791,1.896-1.799,1.997h-0.001c-0.001,0-0.002,0-0.003,0.001l0,0h-0.003l0,0
				c-0.001,0-0.002,0-0.002,0H32.64c-0.001,0-0.002,0-0.003,0.001h-0.001c-0.001,0-0.002,0-0.002,0c-0.001,0-0.001,0-0.001,0H32.63
				l0,0c-0.001,0-0.002,0-0.003,0c0,0-0.002,0.002-0.003,0.001h-0.001h-0.002H32.62c-0.001,0-0.002,0-0.002,0
				s-0.002-0.001-0.004,0.001h-0.001c-0.002,0-0.002,0-0.004,0h-0.001c-0.001,0-0.001,0-0.001,0h-0.002h-0.002
				c0,0-0.001,0.001-0.002,0.001H32.6h-0.001c-0.002,0-0.003,0-0.003,0c-0.001,0-0.002,0-0.003,0l0,0H32.59c0,0,0,0.001-0.001,0.001
				c0,0-0.001,0-0.002,0h-0.001c-0.001,0-0.002,0-0.003,0l0,0c-0.002,0-0.004,0-0.006,0h-0.001
				c-0.003,0.001-0.006,0.001-0.009,0.001l0,0c-0.002,0-0.005,0-0.007,0l0,0c-0.038,0.003-0.088,0.004-0.114,0.004
				c-0.044,0-0.088-0.002-0.132-0.005l0,0c-0.001,0-0.002,0-0.003,0l0,0h-0.003l0,0h-0.003l0,0
				c-0.001-0.001-0.002-0.001-0.004-0.001l0,0c-0.001,0-0.002,0-0.003,0l0,0h-0.003l0,0c-0.002,0-0.004-0.001-0.007-0.001l0,0
				c-0.003,0-0.006,0-0.009,0l0,0C32.279,50.6,32.277,50.6,32.277,50.6h-0.001c-0.001,0-0.002,0-0.003,0l0,0h-0.003l0,0
				c-0.001,0-0.002,0-0.003-0.001h-0.001h-0.002h-0.001c-0.001,0-0.002,0-0.003,0l0,0h-0.003l0,0
				c-0.001-0.001-0.002-0.001-0.003-0.001h-0.001c-0.001,0-0.002,0-0.002,0c-0.001,0-0.001,0-0.001,0h-0.003l0,0
				c-0.001,0-0.002-0.001-0.003-0.001l0,0h-0.002h-0.002c0,0-0.001,0-0.002,0h-0.001c-0.001,0-0.002-0.001-0.003-0.001l0,0h-0.003
				l0,0c-0.001,0-0.002,0-0.003,0h-0.001l-0.002-0.001h-0.001h-0.002c-0.001,0-0.001,0-0.001,0H32.22l0,0
				c-0.001-0.001-0.002-0.001-0.003-0.001h-0.001h-0.002c0,0-0.001,0.001-0.003-0.001H32.21c-0.001,0-0.002,0-0.002,0
				c-0.001,0-0.001,0-0.001,0h-0.003c0,0,0,0-0.001,0c0,0-0.001-0.001-0.002-0.001H32.2c-0.001,0-0.001,0-0.001,0h-0.002
				c-0.002,0-0.003-0.001-0.003-0.001c-0.001,0-0.002,0-0.002,0c-0.001,0-0.001,0-0.001,0h-0.003c0,0-0.001-0.001-0.003-0.001
				h-0.001c-0.001,0-0.001,0-0.001,0h-0.002c-0.001,0-0.002,0-0.002,0c-0.001-0.001-0.001-0.001-0.001-0.001h-0.002
				c0,0-0.001,0-0.002,0h-0.001c-0.001,0-0.002-0.001-0.004-0.001h-0.001c0,0-0.001,0-0.002,0h-0.001
				c-0.002,0-0.003-0.001-0.003-0.001h-0.002c0,0-0.001,0-0.002,0c0,0,0-0.002-0.003-0.001c-0.001,0-0.001,0-0.001,0h-0.002
				c0,0-0.001-0.001-0.004-0.001h-0.001h-0.002h-0.001c0,0-0.001-0.001-0.002-0.001h-0.001c-0.001,0-0.001,0-0.001,0H32.14
				c-0.001,0-0.002-0.001-0.002-0.001c-0.001,0-0.001,0-0.001,0h-0.002c0,0-0.001,0-0.002,0c0,0-0.001-0.001-0.002-0.001
				c0,0-0.001,0-0.003,0h-0.001c0,0-0.001-0.001-0.002-0.001h-0.001c-0.002,0-0.003,0-0.003,0l-0.002-0.001h-0.001h-0.002
				c-0.001,0-0.001-0.002-0.004-0.001c0,0,0,0-0.001,0c0,0-0.001,0-0.002,0h-0.001c-0.001-0.001-0.001-0.001-0.001-0.001h-0.002
				c0,0-0.001,0-0.002,0c0.001,0-0.003-0.001-0.003-0.001H32.1c-0.001,0-0.002,0-0.002,0c-0.001,0-0.001-0.001-0.001-0.001h-0.003
				c0,0,0,0-0.001,0c0,0,0.001-0.001-0.003-0.001c-0.001,0-0.001,0-0.001,0h-0.002c0,0-0.001-0.001-0.002-0.001h-0.001
				c-0.001,0-0.001,0-0.001,0h-0.002c-0.001-0.001-0.002-0.001-0.002-0.001h-0.001c-0.001,0-0.002,0-0.002,0l-0.002-0.001h-0.002
				c0,0,0,0-0.001,0c0,0-0.001,0-0.002-0.001c0,0-0.001,0-0.003,0h-0.001c0,0-0.001-0.001-0.002-0.001h-0.001
				c-0.001,0-0.001,0-0.001,0L32.06,50.57h-0.002c-0.001,0-0.001,0-0.001,0s-0.001-0.001-0.004-0.001c0,0-0.001,0-0.002,0
				c0,0,0-0.002-0.003-0.001c0,0,0,0-0.001,0c0.001,0,0-0.001-0.003-0.001c-0.001,0-0.001,0-0.001,0h-0.002
				c0,0-0.001-0.001-0.002-0.001h-0.001c-0.001,0-0.001,0-0.001,0l-0.002-0.001h-0.002h-0.001c-0.001,0-0.002-0.001-0.002-0.001
				c-0.001,0-0.001,0-0.001,0h-0.002c0,0-0.001,0-0.002-0.001c0,0-0.001,0-0.002,0h-0.001l-0.002-0.001c0,0,0,0-0.001,0
				c0,0-0.001,0-0.002,0c0,0,0-0.001-0.003-0.001h-0.001c-0.001,0-0.001-0.001-0.001-0.001h-0.002c0,0-0.001,0-0.002,0l-0.001-0.001
				c-0.002,0-0.003,0-0.003,0l-0.002-0.001h-0.001c-0.001,0-0.002,0-0.002,0c-0.001-0.001-0.001-0.001-0.001-0.001h-0.002
				c-0.002,0-0.003-0.001-0.003-0.001c-0.001,0-0.001,0-0.001,0s-0.002,0-0.003-0.001c0,0,0,0-0.001,0c0,0-0.001,0-0.002,0
				c0,0-0.001,0-0.001-0.001h-0.002h-0.001c0,0-0.001-0.001-0.002-0.001H31.98c-0.001,0-0.003-0.001-0.003-0.001s-0.001,0-0.002,0
				h-0.001c-0.001-0.001-0.001-0.001-0.002-0.001h-0.001c-0.001,0-0.001,0-0.002-0.001h-0.001h-0.002l-0.001-0.001
				c-0.001,0-0.002,0-0.002,0c-0.001,0-0.001,0-0.001,0c-0.001-0.001-0.002-0.001-0.002-0.001s-0.001,0-0.002,0
				c0,0,0-0.001-0.003-0.001h-0.001c-0.001-0.001-0.001-0.001-0.002-0.001c0,0-0.001,0-0.002,0c0,0,0.001-0.001-0.003-0.001
				c0,0,0,0-0.001,0c0,0-0.001-0.001-0.002-0.001c0,0-0.001,0-0.003,0c0-0.001-0.001-0.001-0.001-0.001s-0.001,0-0.002,0
				l-0.001-0.001c-0.001,0-0.001,0-0.001,0h-0.002c-0.001-0.001-0.001-0.001-0.002-0.001h-0.001c0,0-0.001-0.001-0.002-0.001H31.93
				c-0.001,0-0.002-0.002-0.003-0.001c0,0-0.001,0-0.002,0l-0.001-0.001c-0.001,0-0.001,0-0.001,0h-0.002
				c-0.001-0.001-0.002-0.001-0.002-0.001h-0.001c-0.001,0-0.002-0.001-0.002-0.001c-0.001,0-0.001,0-0.001,0
				s-0.001-0.001-0.004-0.001H31.91c-0.001-0.001-0.001-0.001-0.001-0.001h-0.002c0,0-0.001-0.001-0.002-0.001h-0.001
				c-0.001,0-0.001,0-0.002-0.001h-0.001c-0.002,0-0.002,0-0.003-0.001c-0.001,0-0.001,0-0.001,0s0-0.001-0.004-0.001h-0.001
				c-0.001-0.001-0.001-0.001-0.001-0.001H31.89c-0.001,0-0.001-0.001-0.001-0.001h-0.002c0,0-0.001-0.001-0.002-0.001h-0.001
				c-0.001,0-0.001,0-0.002-0.001h-0.001c0,0-0.001,0-0.002-0.001h-0.001c-0.001,0-0.002,0-0.002,0l-0.001-0.001h-0.002
				l-0.003-0.001c-0.001,0-0.001,0-0.001,0c-0.001-0.001-0.002-0.001-0.002-0.001h-0.001c-0.001-0.001-0.002-0.001-0.002-0.001
				c-0.001,0-0.001,0-0.001,0l-0.002-0.001H31.86c-0.001,0-0.002-0.001-0.002-0.001c-0.001,0-0.001,0-0.001,0l-0.002-0.001h-0.001
				c-0.001,0-0.002,0-0.003-0.001l0,0c0,0-0.002,0-0.003-0.001l0,0c0,0-0.002,0-0.003-0.001l0,0c-0.001,0-0.002,0-0.003-0.001l0,0
				H31.84v-0.001c-0.001,0-0.002,0-0.003,0l0,0c-0.002-0.001-0.004-0.002-0.006-0.002l0,0c-0.576-0.185-1.038-0.621-1.252-1.182
				c0,0-0.001,0.001-0.001-0.002l-0.001-0.001c0-0.002,0-0.002-0.001-0.003v-0.001c-0.001-0.001-0.001-0.002-0.001-0.002v-0.001
				c-0.001-0.001-0.001-0.001-0.001-0.002l0,0c-0.082-0.218-0.126-0.453-0.126-0.7c0-0.001,0-0.003,0-0.005l0.014-15.625
				c-0.003-3.463-1.907-6.504-4.074-6.504c-0.718,0.001-1.393,0.318-2.017,0.944c-1.292,1.296-2.061,3.581-2.056,6.113l0.05,32.196
				c0.001,0.884-0.578,1.664-1.426,1.919c-0.845,0.251-1.76-0.078-2.246-0.818l-2.835-4.315c-0.947-1.45-2.446-2.349-3.915-2.349
				c-0.635,0.001-1.234,0.176-1.745,0.506c-1.666,1.097-1.918,3.803-0.538,5.901l14.093,21.502c1.046,1.602,2.938,2.555,4.51,2.272
				C28.38,90.335,28.499,90.325,28.618,90.325z">
				<animateTransform
				 attributeName="transform"
				 dur="0.7s"
				 type="translate"
				 values="0 0 ; 0 -15; 0 0"
				 repeatCount="2"
				 begin="0.1"/>
				</path>
		</g>
	</g>
</g>
<g>
	<path fill="#C6A471" d="M20.203,21.833c-0.272,0-0.549-0.056-0.81-0.172L1.189,13.592c-0.571-0.253-0.992-0.76-1.136-1.368
		c-0.144-0.609,0.006-1.25,0.403-1.732L8.509,0.73c0.418-0.508,1.052-0.788,1.715-0.72c0.655,0.056,1.241,0.431,1.566,1.003
		l10.026,17.609c0.256,0.336,0.407,0.755,0.407,1.21c0,1.104-0.895,2-2,2h-0.001C20.216,21.833,20.21,21.833,20.203,21.833z">
		<animateTransform
		 attributeName="transform"
		 dur="0.7s"
		 type="translate"
		 values="0 0 ; 0 -15; 0 0"
		 repeatCount="2"
		 begin="0.1"/>
		</path>
</g>
<g>
	<path fill="#C6A471" d="M26.9,19.786c-0.11,0-0.222-0.009-0.333-0.027c-0.852-0.144-1.515-0.817-1.646-1.671L22.828,4.351
		c-0.099-0.65,0.128-1.308,0.607-1.759c0.478-0.451,1.147-0.638,1.792-0.498L33.604,3.9c0.611,0.132,1.126,0.542,1.391,1.108
		c0.265,0.567,0.249,1.226-0.043,1.778l-6.283,11.931C28.319,19.382,27.633,19.786,26.9,19.786z">
		<animateTransform
		 attributeName="transform"
		 dur="0.7s"
		 type="translate"
		 values="0 0 ; 0 -15; 0 0"
		 repeatCount="2"
		 begin="0.1"/>
	</path>
</g>
</svg>
