<?xml version="1.0" encoding="utf-8"?>
<!-- Generator: Adobe Illustrator 16.0.0, SVG Export Plug-In . SVG Version: 6.00 Build 0)  -->
<!DOCTYPE svg PUBLIC "-//W3C//DTD SVG 1.1//EN" "http://www.w3.org/Graphics/SVG/1.1/DTD/svg11.dtd">
<svg version="1.1" id="Layer_1" xmlns="http://www.w3.org/2000/svg" xmlns:xlink="http://www.w3.org/1999/xlink" x="0px" y="0px"
	 width="104.833px" height="52.667px" viewBox="0 0 104.833 52.667" enable-background="new 0 0 104.833 52.667"
	 xml:space="preserve">
<g>
	<path fill="#555655" d="M25.427,27.934v8.309h-4.58V15.076H30.4v3.959h-4.973v5.07h4.646v3.828H25.427z"/>
	<path fill="#555655" d="M37.662,15.076v21.166h-4.58V15.076H37.662z"/>
	<path fill="#555655" d="M53.2,36.242h-4.58V18.676c0-0.175-0.061-0.328-0.18-0.459c-0.12-0.131-0.268-0.195-0.441-0.195h-1.767
		c-0.175,0-0.322,0.064-0.441,0.195c-0.12,0.131-0.181,0.284-0.181,0.459v17.566h-4.58V19.068c0-2.879,1.353-4.318,4.057-4.318
		h4.057c2.704,0,4.057,1.439,4.057,4.318V36.242z"/>
	<path fill="#555655" d="M62.458,27.836v-3.37h6.053v7.786c0,2.879-1.353,4.318-4.057,4.318h-4.122
		c-2.705,0-4.057-1.439-4.057-4.318V19.068c0-2.879,1.352-4.318,4.057-4.318h4.122c2.704,0,4.057,1.439,4.057,4.318v1.995h-4.352
		v-2.552c0-0.174-0.061-0.327-0.18-0.458c-0.12-0.131-0.268-0.196-0.441-0.196h-2.062c-0.175,0-0.321,0.065-0.441,0.196
		s-0.18,0.284-0.18,0.458v14.264c0,0.174,0.06,0.326,0.18,0.457s0.267,0.197,0.441,0.197h2.062c0.174,0,0.321-0.066,0.441-0.197
		c0.119-0.131,0.18-0.283,0.18-0.457v-4.939H62.458z"/>
	<path fill="#555655" d="M83.493,19.068v13.184c0,2.879-1.353,4.318-4.057,4.318h-4.351c-2.705,0-4.057-1.439-4.057-4.318V19.068
		c0-2.879,1.352-4.318,4.057-4.318h4.351C82.14,14.75,83.493,16.189,83.493,19.068z M78.913,32.775V18.512
		c0-0.174-0.061-0.327-0.18-0.458c-0.12-0.131-0.268-0.196-0.441-0.196H76.23c-0.175,0-0.321,0.065-0.441,0.196
		s-0.18,0.284-0.18,0.458v14.264c0,0.174,0.06,0.326,0.18,0.457s0.267,0.197,0.441,0.197h2.062c0.174,0,0.321-0.066,0.441-0.197
		C78.852,33.102,78.913,32.949,78.913,32.775z"/>
</g>
<path fill="#555655" d="M0,0v52.667h104.833V0H0z M100.833,48.833H4V4h96.833V48.833z"/>
</svg>
